HIERARCHY
ROOT Hips
{
  OFFSET 0 0.240689 0
  CHANNELS 6 Xposition Yposition Zposition Zrotation Xrotation Yrotation
  JOINT Bip01_Spine0
  {
    OFFSET 0 -24.7459 49.7988
    CHANNELS 6 Xposition Yposition Zposition Zrotation Xrotation Yrotation
    JOINT Bip01_Pelvis
    {
      OFFSET 0 0 0
      CHANNELS 6 Xposition Yposition Zposition Zrotation Xrotation Yrotation
      JOINT Bip01_Spine0_Tail
      {
        OFFSET -6.47486 -3.86022 0
        CHANNELS 6 Xposition Yposition Zposition Zrotation Xrotation Yrotation
        JOINT Bip01_Spine0_Tail1
        {
          OFFSET 10.3837 -0.00825882 0
          CHANNELS 6 Xposition Yposition Zposition Zrotation Xrotation Yrotation
          JOINT Bip01_Spine0_Tail2
          {
            OFFSET 10.3837 -0.00826263 0
            CHANNELS 6 Xposition Yposition Zposition Zrotation Xrotation Yrotation
            JOINT Bip01_Spine0_Tail3
            {
              OFFSET 10.3837 -0.00825882 0
              CHANNELS 6 Xposition Yposition Zposition Zrotation Xrotation Yrotation
              JOINT Bip01_Spine0_Tail4
              {
                OFFSET 10.3837 -0.00826263 0
                CHANNELS 6 Xposition Yposition Zposition Zrotation Xrotation Yrotation
                End Site
                {
                  OFFSET 0 0 0
                }
              }
            }
          }
        }
      }
      JOINT Bip01_R_Thigh
      {
        OFFSET 0 -1.52588e-005 -8.75617
        CHANNELS 6 Xposition Yposition Zposition Zrotation Xrotation Yrotation
        JOINT Bip01_R_Calf
        {
          OFFSET 19.7638 0 0
          CHANNELS 6 Xposition Yposition Zposition Zrotation Xrotation Yrotation
          JOINT Bip01_R_Foot
          {
            OFFSET 18.6534 0 0
            CHANNELS 6 Xposition Yposition Zposition Zrotation Xrotation Yrotation
            JOINT Bip01_R_Toe0
            {
              OFFSET 5.09145 13.9567 0
              CHANNELS 6 Xposition Yposition Zposition Zrotation Xrotation Yrotation
              JOINT Bip01_R_Toe01
              {
                OFFSET 4.28803 0 0
                CHANNELS 6 Xposition Yposition Zposition Zrotation Xrotation Yrotation
                JOINT Bip01_R_Toe02
                {
                  OFFSET 3.85801 0 0
                  CHANNELS 6 Xposition Yposition Zposition Zrotation Xrotation Yrotation
                  End Site
                  {
                    OFFSET 0 0 0
                  }
                }
              }
            }
          }
        }
      }
      JOINT Bip01_L_Thigh
      {
        OFFSET 0 1.52588e-005 8.75617
        CHANNELS 6 Xposition Yposition Zposition Zrotation Xrotation Yrotation
        JOINT Bip01_L_Calf
        {
          OFFSET 19.7638 0 0
          CHANNELS 6 Xposition Yposition Zposition Zrotation Xrotation Yrotation
          JOINT Bip01_L_Foot
          {
            OFFSET 18.6534 0 0
            CHANNELS 6 Xposition Yposition Zposition Zrotation Xrotation Yrotation
            JOINT Bip01_L_Toe0
            {
              OFFSET 5.09144 13.9567 0
              CHANNELS 6 Xposition Yposition Zposition Zrotation Xrotation Yrotation
              JOINT Bip01_L_Toe01
              {
                OFFSET 4.28802 0 0
                CHANNELS 6 Xposition Yposition Zposition Zrotation Xrotation Yrotation
                JOINT Bip01_L_Toe02
                {
                  OFFSET 3.85801 0 0
                  CHANNELS 6 Xposition Yposition Zposition Zrotation Xrotation Yrotation
                  End Site
                  {
                    OFFSET 0 0 0
                  }
                }
              }
            }
          }
        }
      }
      JOINT Bip01_Spine
      {
        OFFSET 9.14835 -0.00640869 -1.1e-005
        CHANNELS 6 Xposition Yposition Zposition Zrotation Xrotation Yrotation
        JOINT Bip01_Spine1
        {
          OFFSET 8.04366 -0.00638199 0
          CHANNELS 6 Xposition Yposition Zposition Zrotation Xrotation Yrotation
          JOINT Bip01_Spine2
          {
            OFFSET 8.04367 -0.00639343 0
            CHANNELS 6 Xposition Yposition Zposition Zrotation Xrotation Yrotation
            JOINT Bip01_Spine3
            {
              OFFSET 8.04304 -0.00831222 0
              CHANNELS 6 Xposition Yposition Zposition Zrotation Xrotation Yrotation
              JOINT Bip01_Neck
              {
                OFFSET 10.6685 1.06813 0
                CHANNELS 6 Xposition Yposition Zposition Zrotation Xrotation Yrotation
                JOINT Bip01_R_Clavicle
                {
                  OFFSET -3.21661 -4.89635 -9.04802
                  CHANNELS 6 Xposition Yposition Zposition Zrotation Xrotation Yrotation
                  JOINT Bip01_R_UpperArm
                  {
                    OFFSET 19.0492 0 0
                    CHANNELS 6 Xposition Yposition Zposition Zrotation Xrotation Yrotation
                    JOINT Bip01_R_Forearm
                    {
                      OFFSET 10.3706 0 0
                      CHANNELS 6 Xposition Yposition Zposition Zrotation Xrotation Yrotation
                      JOINT Bip01_R_Hand
                      {
                        OFFSET 22.8632 0 0
                        CHANNELS 6 Xposition Yposition Zposition Zrotation Xrotation Yrotation
                        JOINT Bip01_R_Finger0
                        {
                          OFFSET 6.48259 0.103651 0.504496
                          CHANNELS 6 Xposition Yposition Zposition Zrotation Xrotation Yrotation
                          JOINT Bip01_R_Finger01
                          {
                            OFFSET 3.66847 0 0
                            CHANNELS 6 Xposition Yposition Zposition Zrotation Xrotation Yrotation
                            End Site
                            {
                              OFFSET 0 0 0
                            }
                          }
                        }
                      }
                    }
                  }
                }
                JOINT Bip01_L_Clavicle
                {
                  OFFSET -3.21661 -4.89641 9.04797
                  CHANNELS 6 Xposition Yposition Zposition Zrotation Xrotation Yrotation
                  JOINT Bip01_L_UpperArm
                  {
                    OFFSET 19.0492 0 0
                    CHANNELS 6 Xposition Yposition Zposition Zrotation Xrotation Yrotation
                    JOINT Bip01_L_Forearm
                    {
                      OFFSET 10.3706 0 0
                      CHANNELS 6 Xposition Yposition Zposition Zrotation Xrotation Yrotation
                      JOINT Bip01_L_Hand
                      {
                        OFFSET 22.8631 0 0
                        CHANNELS 6 Xposition Yposition Zposition Zrotation Xrotation Yrotation
                        JOINT Bip01_L_Finger0
                        {
                          OFFSET 6.48257 0.103655 -0.504492
                          CHANNELS 6 Xposition Yposition Zposition Zrotation Xrotation Yrotation
                          JOINT Bip01_L_Finger01
                          {
                            OFFSET 3.66844 0 0
                            CHANNELS 6 Xposition Yposition Zposition Zrotation Xrotation Yrotation
                            End Site
                            {
                              OFFSET 0 0 0
                            }
                          }
                        }
                      }
                    }
                  }
                }
                JOINT Bip01_Neck1
                {
                  OFFSET 7.52459 -0.00656509 0
                  CHANNELS 6 Xposition Yposition Zposition Zrotation Xrotation Yrotation
                  JOINT Bip01_Neck2
                  {
                    OFFSET 8.4783 -0.00588226 0
                    CHANNELS 6 Xposition Yposition Zposition Zrotation Xrotation Yrotation
                    JOINT Bip01_Head
                    {
                      OFFSET 8.41606 0 0
                      CHANNELS 6 Xposition Yposition Zposition Zrotation Xrotation Yrotation
                      JOINT EyesBlue
                      {
                        OFFSET 0 0 0
                        CHANNELS 6 Xposition Yposition Zposition Zrotation Xrotation Yrotation
                        JOINT EyesBlue_2
                        {
                          OFFSET 0 -0.500007 0
                          CHANNELS 6 Xposition Yposition Zposition Zrotation Xrotation Yrotation
                          End Site
                          {
                            OFFSET 0 0 0
                          }
                        }
                      }
                      JOINT Bip01_Head2_Eyeleds
                      {
                        OFFSET 6.52751 7.61746 2.2e-005
                        CHANNELS 6 Xposition Yposition Zposition Zrotation Xrotation Yrotation
                        End Site
                        {
                          OFFSET 0 0 0
                        }
                      }
                      JOINT Bip01_Head_Muzzle
                      {
                        OFFSET 2.88628 13.9448 3.88994
                        CHANNELS 6 Xposition Yposition Zposition Zrotation Xrotation Yrotation
                        End Site
                        {
                          OFFSET 0 0 0
                        }
                      }
                      JOINT Bip01_Head1_Jaw
                      {
                        OFFSET 0.271065 1.32405 0
                        CHANNELS 6 Xposition Yposition Zposition Zrotation Xrotation Yrotation
                        JOINT _Bip01_Head11_TungeControler
                        {
                          OFFSET 4.61616 5.82872 0
                          CHANNELS 6 Xposition Yposition Zposition Zrotation Xrotation Yrotation
                          JOINT _Bip01_Ponytail3_tunge
                          {
                            OFFSET 5.17785 2.98805 0
                            CHANNELS 6 Xposition Yposition Zposition Zrotation Xrotation Yrotation
                            JOINT Bip01_Ponytail31
                            {
                              OFFSET 5.57569 0 0
                              CHANNELS 6 Xposition Yposition Zposition Zrotation Xrotation Yrotation
                              JOINT Bip01_Ponytail32
                              {
                                OFFSET 2.93165 0 0
                                CHANNELS 6 Xposition Yposition Zposition Zrotation Xrotation Yrotation
                                JOINT Bip01_Ponytail3Nub
                                {
                                  OFFSET 3.30155 0 0
                                  CHANNELS 6 Xposition Yposition Zposition Zrotation Xrotation Yrotation
                                  End Site
                                  {
                                    OFFSET 0 0 0
                                  }
                                }
                              }
                            }
                          }
                        }
                        JOINT Bip01_Head_JawNub
                        {
                          OFFSET 15.5776 -0.000389099 0
                          CHANNELS 6 Xposition Yposition Zposition Zrotation Xrotation Yrotation
                          End Site
                          {
                            OFFSET 0 0 0
                          }
                        }
                      }
                      JOINT Bip01_Ponytail2
                      {
                        OFFSET 9.40334 1.03973 -6.51764
                        CHANNELS 6 Xposition Yposition Zposition Zrotation Xrotation Yrotation
                        JOINT Bip01_Ponytail21
                        {
                          OFFSET 2.77018 -0.00640106 1.33514e-005
                          CHANNELS 6 Xposition Yposition Zposition Zrotation Xrotation Yrotation
                          End Site
                          {
                            OFFSET 0 0 0
                          }
                        }
                      }
                      JOINT Bip01_Ponytail1
                      {
                        OFFSET 9.40368 1.03969 6.51768
                        CHANNELS 6 Xposition Yposition Zposition Zrotation Xrotation Yrotation
                        JOINT Bip01_Ponytail11
                        {
                          OFFSET 2.77018 -0.00640487 0
                          CHANNELS 6 Xposition Yposition Zposition Zrotation Xrotation Yrotation
                          End Site
                          {
                            OFFSET 0 0 0
                          }
                        }
                      }
                    }
                  }
                }
              }
            }
          }
        }
      }
    }
  }
}
MOTION
Frames:	4
Frame Time:	0.0333333
-22.942 0.449582 0 -0 -90 -0 -3.25604 -28.7019 44.121 88.7407 -0.00619968 77.8204 0 0 0 -90 -3.50835e-015 -90 -6.47925 -3.85825 -7e-006 157.517 -2.52968 -2.78536 10.3852 -0.008068 2.90079e-011 -2.6094 -2.52957 -2.78545 10.3851 -0.008083 8.69171e-011 -2.94423 -2.52958 -2.7854 10.3851 -0.008079 1.22284e-010 -2.94423 -2.52956 -2.7854 10.3851 -0.008081 1.56625e-010 -2.94423 -2.52955 -2.7854 1.3e-005 -1.1e-005 -8.75617 -109.882 8.32358 157.54 19.7638 -2e-006 -6.21725e-015 -113.28 4.95978e-006 9.4873e-006 18.6534 3e-006 -4.84945e-013 -10.7497 -5.56512 -6.9611 5.09143 13.9567 3.04569e-005 99.0234 9.45783 9.27171 4.288 -3e-006 -8.88179e-015 42 -2.48354e-005 -1.29478e-006 3.85799 -3.55271e-015 4.44089e-015 -23.5 0.00066993 0.00102132 -1.1e-005 1.1e-005 8.75617 -114.614 6.72682 -165.76 19.7638 1e-006 3.55271e-014 -78.6671 -8.83771e-006 1.39742e-005 18.6534 -3.55271e-015 0 3.12738 -2.20217 9.78154 5.09143 13.9567 -1.75009e-008 102.557 -12.2426 -4.57271 4.288 8.88178e-015 0 42 3.01898e-005 9.29692e-008 3.85799 -1.0214e-014 1.42109e-014 -45.0006 0.000475671 0.00118181 9.14708 -0.006278 1.2e-005 -14.4016 -0.000217036 -0.000101886 8.04343 -0.006404 3.60281e-011 17.8522 -5.20943e-006 -4.54473e-005 8.04383 -0.006393 -8.4615e-011 21.3256 -8.51082e-006 -4.54871e-005 8.04153 -0.008068 -3.26818e-010 5.04064 9.43311e-006 -1.83201e-005 10.6672 1.06873 -0.00115898 -14.8171 -2.9525e-005 4.03421e-005 -3.08404 -4.98082 -9.04801 -165.228 -81.8901 118.338 19.0492 8.52651e-014 -7e-006 114.773 41.3229 -120.76 10.3706 -4.79616e-014 2e-006 -74.2726 -7.26844e-009 -8.44736e-007 22.8631 3e-006 -1e-006 4.49527 14.6534 -11.1121 6.48256 0.103653 0.504496 -62.1129 -4.70884 -14.7832 3.66843 -2.30926e-014 3.55271e-015 40.107 9.04118e-007 3.33113e-006 -3.08404 -4.98087 9.04798 -165.229 74.4168 -112.605 19.0492 -1e-006 1.1e-005 87.7166 -38.9187 108.393 10.3706 1e-006 -5.68434e-014 -84.7448 -8.96385e-006 -1.94913e-005 22.8631 -3e-006 1.49214e-013 2.97118 -19.922 -1.88093 6.48257 0.103653 -0.504495 -65.1307 3.90816 15.0099 3.66843 -3e-006 1e-006 40.107 1.12908e-005 3.63903e-006 7.52779 -0.006416 -0.001305 -10.5541 2.21448e-005 3.3729e-005 8.47584 -0.006526 -0.0013 26.4514 -1.45096e-005 -7.34677e-005 8.41604 3e-006 -3e-006 -90.431 2.78596 0.710159 3.76588e-013 7e-006 -7.10543e-014 -23.1098 1.37701e-015 90 -9.06479e-006 -0.499998 -3.74077e-006 68.6437 90 21.3563 0 0 0 -99.049 1.52588e-005 -180 4.86558 14.2667 3.87254 -22.989 1.37021e-015 90 0 0 0 -86.0524 -1.52588e-005 -180 0 0 0 -120.289 -6.62029e-007 6.82447e-007 0 0 0 133.74 -5.31163e-006 -1.90313e-007 0 0 0 1.83152 -3.07007e-006 -1.63942e-007 0 0 0 -17.65 7.14951e-006 2.48533e-006 0 0 0 -26.1943 1.90812e-007 2.92035e-007 15.5776 -0.000396 -5.00001e-006 -3.18055e-015 -4.96962e-017 -0 9.4055 1.04068 -6.5157 37.2783 -12.0039 66.2569 2.76858 -0.006111 -0.001365 12.1848 29.5053 -23.1966 9.40585 1.04064 6.51574 36.8672 12.1628 -67.8438 2.76859 -0.006115 0.001365 11.9969 -29.9052 21.4306 
-22.7882 0.449582 0 -0 -90 -0 -4.38305 -28.7019 44.366 88.7407 -0.00620429 79.9543 0 0 0 -90 -3.50835e-015 -90 -6.47925 -3.85825 -7e-006 159.551 -2.08008 1.26264 10.3852 -0.008068 -9.16991e-011 -0.575838 -2.07996 1.26255 10.3851 -0.008083 -1.34339e-010 -0.910662 -2.07997 1.26261 10.3851 -0.008079 -1.05096e-010 -0.910664 -2.07996 1.26262 10.3851 -0.008081 -7.76907e-011 -0.91066 -2.07994 1.26262 1.3e-005 -1.1e-005 -8.75617 -109.433 7.18275 156.852 19.7638 -2e-006 0 -107.51 5.91323e-007 9.53938e-006 18.6534 3e-006 -1.88294e-013 -13.9624 -5.99125 -6.40816 5.09143 13.9567 -1.28144e-006 101.363 9.54388 9.19784 4.288 -3e-006 5.32907e-015 42 -2.48494e-005 -1.14888e-006 3.85799 -7.10542e-015 1.24345e-014 -23.5 0.000669963 0.00102126 -1.1e-005 1.1e-005 8.75617 -117.491 7.77014 -167.682 19.7638 1e-006 2.13163e-014 -79.6332 -9.26963e-006 1.39436e-005 18.6534 -1.06581e-014 0 1.9835 -4.15077 11.3141 5.09143 13.9567 -1.76439e-008 103.65 -12.3258 -4.34011 4.288 -1.06581e-014 7.10543e-015 42 3.07764e-005 2.22967e-007 3.85799 8.88178e-016 0 -45.0006 0.000475377 0.00118129 9.14708 -0.006278 1.2e-005 -13.611 -0.000218354 -9.88771e-005 8.04343 -0.006404 4.35527e-011 16.8281 -4.84518e-006 -4.55001e-005 8.04383 -0.006393 -1.27482e-010 20.3015 -6.96648e-006 -4.57238e-005 8.04153 -0.008068 -2.74724e-010 4.01661 9.43459e-006 -1.80987e-005 10.6672 1.06873 -0.00115898 -15.3225 -3.61899e-005 4.13613e-005 -3.03994 -5.00783 -9.04801 -164.723 -81.8901 118.338 19.0492 7.28306e-014 -7e-006 114.713 37.7408 -118.556 10.3706 -4.79616e-014 2e-006 -78.1818 -9.75617e-006 1.71786e-006 22.8631 3e-006 -1e-006 3.95901 16.5592 -12.9245 6.48256 0.103653 0.504496 -60.0845 -5.23886 -14.6073 3.66843 -9.76996e-015 -3.55271e-015 40.107 8.73027e-007 3.51654e-006 -3.03994 -5.00789 9.04798 -164.723 74.4168 -112.605 19.0492 -1e-006 1.1e-005 82.9855 -34.326 106.796 10.3706 1e-006 -5.68434e-014 -90.0182 -7.25602e-006 -2.05791e-005 22.8631 -3e-006 1.42109e-013 1.055 -18.8201 -4.62664 6.48257 0.103653 -0.504495 -63.7832 4.26735 14.9139 3.66843 -3e-006 1e-006 40.107 9.59828e-006 4.47934e-006 7.52779 -0.006416 -0.001305 -9.57168 2.91836e-005 3.13626e-005 8.47584 -0.006526 -0.0013 25.6634 -1.47043e-005 -7.30618e-005 8.41604 3e-006 -3e-006 -85.9055 2.62683 0.626561 4.90275e-013 7e-006 -6.03961e-014 -23.1098 1.37701e-015 90 -9.06455e-006 -0.499998 -3.74719e-006 88.9089 89.9997 1.09112 0 0 0 -99.049 1.52588e-005 -180 4.86558 14.2667 3.87254 -22.989 1.37021e-015 90 0 0 0 -86.0524 -1.52588e-005 -180 0 0 0 -120.289 -6.50175e-007 6.35343e-007 0 0 0 133.74 -2.82586e-006 -2.01626e-007 0 0 0 1.83152 -9.01477e-007 -8.41493e-008 0 0 0 -17.65 2.71665e-006 1.07122e-006 0 0 0 -26.1943 1.46903e-007 2.86953e-007 15.5776 -0.000396 -5.00001e-006 3.18055e-015 0 1.98785e-016 9.4055 1.04068 -6.5157 36.3802 -10.5917 66.1389 2.76858 -0.006111 -0.001365 13.8105 30.3918 -23.9504 9.40585 1.04064 6.51574 36.1191 10.6966 -67.1043 2.76859 -0.006115 0.001365 13.6892 -30.648 22.8751 
-22.6343 0.449582 0 -0 -90 -0 -4.95103 -28.7019 44.613 88.7407 -0.00619827 82.04 0 0 0 -90 -3.50835e-015 -90 -6.47925 -3.85825 -7e-006 161.331 -1.50411 5.12375 10.3852 -0.008068 -2.08178e-010 1.20392 -1.504 5.12365 10.3851 -0.008083 -3.33714e-010 0.869081 -1.504 5.12371 10.3851 -0.008079 -2.44128e-010 0.869107 -1.50399 5.12371 10.3851 -0.008081 -1.57328e-010 0.869105 -1.50397 5.12371 1.3e-005 -1.1e-005 -8.75617 -109.506 6.05144 156.123 19.7638 -2e-006 1.24345e-014 -100.85 -1.19143e-006 9.48704e-006 18.6534 3e-006 -3.55271e-014 -17.4372 -6.59017 -5.57493 5.09143 13.9567 -3.53406e-005 107.53 9.75603 8.98691 4.288 -3e-006 3.90799e-014 42 -2.4601e-005 -8.4363e-007 3.85799 -5.32907e-015 2.66454e-015 -23.5 0.000669805 0.00102103 -1.1e-005 1.1e-005 8.75617 -120.45 8.18515 -168.69 19.7638 1e-006 4.26326e-014 -80.6141 -9.62935e-006 1.38272e-005 18.6534 3.55271e-015 2.13163e-014 0.629299 -5.39514 11.9748 5.09143 13.9567 1.58276e-009 104.029 -12.3536 -4.25913 4.288 -3.55271e-015 7.10543e-015 42 3.37415e-005 5.36092e-008 3.85799 1.0214e-014 1.42109e-014 -45.0006 0.000473282 0.00117933 9.14708 -0.006278 1.2e-005 -12.8334 -0.000219585 -9.58994e-005 8.04343 -0.006404 5.37206e-011 15.771 -4.82899e-006 -4.5536e-005 8.04383 -0.006393 -2.09642e-010 19.2444 -5.14836e-006 -4.60513e-005 8.04153 -0.008068 -2.35506e-010 2.95943 9.52408e-006 -1.78833e-005 10.6672 1.06873 -0.00115898 -15.8311 -5.09336e-005 4.3343e-005 -2.99531 -5.03461 -9.04801 -164.215 -81.8902 118.337 19.0492 6.92779e-014 -7e-006 113.48 33.8698 -116.08 10.3706 -4.08562e-014 2e-006 -82.2604 -9.7602e-006 1.54784e-006 22.8631 3e-006 -1e-006 2.75135 18.4155 -13.5795 6.48256 0.103653 0.504496 -58.0921 -5.75224 -14.4165 3.66843 1.42109e-014 -1.77636e-015 40.107 1.29928e-006 3.56277e-006 -2.99531 -5.03468 9.04798 -164.215 74.4168 -112.605 19.0492 -1e-006 1.1e-005 80.0154 -29.7009 106.131 10.3706 1e-006 -5.68434e-014 -94.577 -5.56318e-006 -2.16315e-005 22.8631 -3e-006 1.49214e-013 -0.55823 -17.7734 -6.03643 6.48257 0.103653 -0.504495 -62.4608 4.61726 14.8114 3.66843 -3e-006 1e-006 40.107 8.03454e-006 5.22748e-006 7.52779 -0.006416 -0.00130501 -8.41546 4.43485e-005 2.97531e-005 8.47584 -0.006526 -0.0013 24.8385 -1.49048e-005 -7.26622e-005 8.41604 3e-006 -3e-006 -81.9558 2.4544 0.557255 6.25278e-013 7e-006 -6.39489e-014 -23.1098 1.37701e-015 90 -9.06425e-006 -0.499998 -3.75368e-006 84.4007 90 5.59934 0 0 0 -99.049 1.52588e-005 -180 4.86558 14.2667 3.87254 -22.989 1.37021e-015 90 0 0 0 -86.0524 -1.52588e-005 -180 0 0 0 -120.289 -6.90573e-007 6.04091e-007 0 0 0 133.74 -1.99922e-006 -2.44002e-007 0 0 0 1.83152 -4.04207e-007 -5.64335e-008 0 0 0 -17.65 1.42934e-006 6.57653e-007 0 0 0 -26.1943 1.22637e-007 2.81438e-007 15.5776 -0.000396 -5.00001e-006 6.36111e-015 9.93923e-017 -0 9.4055 1.04068 -6.5157 35.8588 -10.1724 66.8466 2.76858 -0.006111 -0.001365 14.2996 30.9033 -23.398 9.40585 1.04064 6.51574 35.8585 10.1724 -66.8467 2.76859 -0.006115 0.001365 14.2997 -30.9033 23.398 
-22.4804 0.449582 0 -0 -90 -0 -5.04796 -28.7019 44.8671 88.7407 -0.00617421 84.1406 0 0 0 -90 -3.50835e-015 -90 -6.47925 -3.85825 -7e-006 162.685 -0.875489 8.55733 10.3852 -0.008068 -2.88168e-010 2.55776 -0.875381 8.55723 10.3851 -0.008083 -3.86308e-010 2.22294 -0.875381 8.55728 10.3851 -0.008079 -1.86091e-010 2.22294 -0.875368 8.55729 10.3851 -0.008081 -7.42517e-011 2.22294 -0.875355 8.55729 1.3e-005 -1.1e-005 -8.75617 -109.935 4.90732 155.34 19.7638 -2e-006 2.04281e-014 -93.4434 -9.94038e-007 9.27954e-006 18.6534 3e-006 2.39808e-014 -21.167 -7.32421 -4.49792 5.09143 13.9567 -1.67025e-005 116.045 10.0093 8.65989 4.288 -3e-006 6.39489e-014 42 -2.27178e-005 -4.9242e-007 3.85799 -8.88178e-015 -1.06581e-014 -23.5 0.000668311 0.00102012 -1.1e-005 1.1e-005 8.75617 -121.036 8.41227 -168.944 19.7638 1e-006 6.39488e-014 -78.8146 -9.18194e-006 1.41257e-005 18.6534 -3.55271e-015 -7.10543e-015 1.04402 -5.22655 11.9802 5.09143 13.9567 4.27696e-008 103.601 -12.3182 -4.35551 4.288 2.66453e-015 -7.10543e-015 42 3.19431e-005 -6.9599e-008 3.85799 2.13163e-014 1.42109e-014 -45.0006 0.000474514 0.0011807 9.14708 -0.006278 1.2e-005 -12.0463 -0.000220748 -9.28673e-005 8.04343 -0.006404 6.86207e-011 14.6601 -5.89828e-006 -4.55509e-005 8.04383 -0.006393 -4.13127e-010 18.1335 -2.29501e-006 -4.66776e-005 8.04153 -0.008068 -2.03592e-010 1.84854 9.67659e-006 -1.76636e-005 10.6672 1.06873 -0.00115898 -16.3415 -6.60947e-005 4.43441e-005 -2.95029 -5.06108 -9.04802 -163.704 -81.8902 118.338 19.0492 5.68434e-014 -7e-006 112.031 29.7195 -114.283 10.3706 -4.9738e-014 2e-006 -87.1566 -9.92871e-006 1.22496e-006 22.8631 3e-006 -1e-006 5.43701 18.8256 -14.8194 6.48256 0.103653 0.504496 -59.6103 -5.36174 -14.5635 3.66843 1.5099e-014 -1.77636e-015 40.107 1.89888e-007 4.33812e-006 -2.95029 -5.06116 9.04798 -163.704 74.4167 -112.605 19.0492 -1e-006 1.1e-005 78.376 -24.7883 106.17 10.3706 1e-006 -7.10543e-014 -98.8816 -3.71292e-006 -2.28173e-005 22.8631 -3e-006 1.56319e-013 -1.89941 -16.8758 -6.25151 6.48257 0.103653 -0.504495 -61.1239 4.96817 14.6997 3.66843 -3e-006 1e-006 40.107 6.55501e-006 5.90886e-006 7.52779 -0.006416 -0.00130501 -7.01051 6.00966e-005 2.64779e-005 8.47584 -0.006526 -0.0013 23.9643 -1.59446e-005 -7.18957e-005 8.41604 3e-006 -3e-006 -78.7247 2.26656 0.502464 6.96332e-013 7e-006 -6.39489e-014 -23.1098 1.37701e-015 90 -9.06392e-006 -0.499998 -3.75912e-006 63.1387 90 26.8613 0 0 0 -99.049 1.52588e-005 -180 4.86558 14.2667 3.87254 -22.989 1.37021e-015 90 0 0 0 -86.0524 -1.52588e-005 -180 0 0 0 -120.289 -7.91289e-007 5.81183e-007 0 0 0 133.74 -1.67562e-006 -3.26435e-007 0 0 0 1.83152 -2.24389e-007 -4.35698e-008 0 0 0 -17.65 8.87374e-007 4.8116e-007 0 0 0 -26.1943 1.127e-007 2.7582e-007 15.5776 -0.000396 -5e-006 6.36111e-015 4.96962e-017 -1.49089e-016 9.4055 1.04068 -6.5157 35.7386 -10.8589 68.527 2.76858 -0.006111 -0.001365 13.499 31.0218 -21.2838 9.40585 1.04064 6.51574 36.1196 10.6973 -67.1047 2.76859 -0.006115 0.001365 13.6882 -30.6476 22.8743 
